<svg width="120" height="44" viewBox="0 0 120 44" fill="none" xmlns="http://www.w3.org/2000/svg">
<g clip-path="url(#clip0_612_789)">
<path d="M29.8109 25.9002C29.3797 26.858 29.1719 27.2861 28.6172 28.1315C27.8406 29.3127 26.7453 30.7877 25.3922 30.7971C24.1875 30.808 23.8766 30.0111 22.2406 30.0252C20.6063 30.033 20.2656 30.8127 19.0594 30.8002C17.7047 30.7877 16.6688 29.4596 15.8922 28.2799C13.7203 24.9721 13.4906 21.094 14.8328 19.0315C15.7828 17.569 17.2844 16.7096 18.6953 16.7096C20.1328 16.7096 21.0359 17.4986 22.2234 17.4986C23.3766 17.4986 24.0781 16.708 25.7406 16.708C26.9969 16.708 28.325 17.3924 29.275 18.5736C26.1688 20.2768 26.6734 24.7127 29.8109 25.9002V25.9002ZM24.4781 15.3877C25.0828 14.6111 25.5422 13.5158 25.375 12.4002C24.3891 12.4674 23.2359 13.0971 22.5625 13.9127C21.9516 14.6565 21.4453 15.7596 21.6422 16.8268C22.7188 16.8611 23.8328 16.219 24.4781 15.3877H24.4781Z" fill="white"/>
</g>
<path d="M43.724 15.9902H46.16L49.464 26.0002H47.532L46.734 23.5222H42.912L42.128 26.0002H40.378L43.724 15.9902ZM43.346 22.1642H46.3L44.83 17.5162L43.346 22.1642ZM50.9064 18.6782H52.6004V19.8542C52.8151 19.4808 53.1371 19.1682 53.5664 18.9162C54.0051 18.6548 54.4811 18.5242 54.9944 18.5242C55.9371 18.5242 56.7118 18.8602 57.3184 19.5322C57.9344 20.1948 58.2424 21.1002 58.2424 22.2482V22.3602C58.2424 23.5175 57.9391 24.4368 57.3324 25.1182C56.7351 25.7995 55.9558 26.1402 54.9944 26.1402C54.4344 26.1402 53.9444 26.0235 53.5244 25.7902C53.1138 25.5475 52.8058 25.2348 52.6004 24.8522V28.5062H50.9064V18.6782ZM54.5744 24.7962C55.1998 24.7962 55.6758 24.5908 56.0024 24.1802C56.3384 23.7695 56.5064 23.1722 56.5064 22.3882V22.2762C56.5064 21.4922 56.3244 20.8948 55.9604 20.4842C55.6058 20.0642 55.1391 19.8542 54.5604 19.8542C53.9444 19.8542 53.4544 20.0595 53.0904 20.4702C52.7264 20.8808 52.5444 21.4828 52.5444 22.2762V22.3882C52.5444 23.1815 52.7218 23.7835 53.0764 24.1942C53.4404 24.5955 53.9398 24.7962 54.5744 24.7962ZM59.8205 18.6782H61.5145V19.8542C61.7292 19.4808 62.0512 19.1682 62.4805 18.9162C62.9192 18.6548 63.3952 18.5242 63.9085 18.5242C64.8512 18.5242 65.6258 18.8602 66.2325 19.5322C66.8485 20.1948 67.1565 21.1002 67.1565 22.2482V22.3602C67.1565 23.5175 66.8532 24.4368 66.2465 25.1182C65.6492 25.7995 64.8698 26.1402 63.9085 26.1402C63.3485 26.1402 62.8585 26.0235 62.4385 25.7902C62.0278 25.5475 61.7198 25.2348 61.5145 24.8522V28.5062H59.8205V18.6782ZM63.4885 24.7962C64.1138 24.7962 64.5898 24.5908 64.9165 24.1802C65.2525 23.7695 65.4205 23.1722 65.4205 22.3882V22.2762C65.4205 21.4922 65.2385 20.8948 64.8745 20.4842C64.5198 20.0642 64.0532 19.8542 63.4745 19.8542C62.8585 19.8542 62.3685 20.0595 62.0045 20.4702C61.6405 20.8808 61.4585 21.4828 61.4585 22.2762V22.3882C61.4585 23.1815 61.6358 23.7835 61.9905 24.1942C62.3545 24.5955 62.8538 24.7962 63.4885 24.7962ZM75.6672 26.1402C74.3699 26.1402 73.3945 25.8508 72.7412 25.2722C72.0972 24.6935 71.7332 23.9002 71.6492 22.8922H73.4412C73.5065 23.4708 73.6979 23.9235 74.0152 24.2502C74.3419 24.5768 74.8925 24.7402 75.6672 24.7402C76.2272 24.7402 76.6799 24.6002 77.0252 24.3202C77.3799 24.0402 77.5572 23.6668 77.5572 23.2002C77.5572 22.7335 77.4125 22.3928 77.1232 22.1782C76.8339 21.9635 76.2832 21.7908 75.4712 21.6602C74.2299 21.4828 73.3292 21.1795 72.7692 20.7502C72.2185 20.3208 71.9432 19.6488 71.9432 18.7342C71.9432 17.9035 72.2652 17.2175 72.9092 16.6762C73.5532 16.1348 74.3932 15.8642 75.4292 15.8642C77.6412 15.8642 78.8545 16.8302 79.0692 18.7622H77.3612C77.2679 18.2302 77.0672 17.8475 76.7592 17.6142C76.4605 17.3808 76.0172 17.2642 75.4292 17.2642C74.8785 17.2642 74.4539 17.3855 74.1552 17.6282C73.8565 17.8615 73.7072 18.1788 73.7072 18.5802C73.7072 19.0188 73.8425 19.3455 74.1132 19.5602C74.3932 19.7655 74.9485 19.9288 75.7792 20.0502C77.0299 20.2275 77.9352 20.5308 78.4952 20.9602C79.0645 21.3895 79.3492 22.0848 79.3492 23.0462C79.3492 23.9235 79.0039 24.6608 78.3132 25.2582C77.6319 25.8462 76.7499 26.1402 75.6672 26.1402ZM83.5586 26.1262C82.8306 26.1262 82.2799 25.9395 81.9066 25.5662C81.5333 25.1928 81.3466 24.6562 81.3466 23.9562V19.9522H80.3666V18.6782H81.3466V17.0682H83.0406V18.6782H84.6506V19.9522H83.0406V23.8022C83.0406 24.4275 83.3206 24.7402 83.8806 24.7402C84.2166 24.7402 84.4919 24.6935 84.7066 24.6002V25.9442C84.3799 26.0655 83.9973 26.1262 83.5586 26.1262ZM89.5653 24.8242C90.1999 24.8242 90.6946 24.6095 91.0493 24.1802C91.4039 23.7415 91.5813 23.1442 91.5813 22.3882V22.2902C91.5813 21.5342 91.4039 20.9415 91.0493 20.5122C90.6946 20.0735 90.1999 19.8542 89.5653 19.8542C88.9306 19.8542 88.4313 20.0688 88.0673 20.4982C87.7126 20.9275 87.5353 21.5202 87.5353 22.2762V22.3882C87.5353 23.1442 87.7126 23.7415 88.0673 24.1802C88.4219 24.6095 88.9213 24.8242 89.5653 24.8242ZM92.2533 25.1042C91.5439 25.7948 90.6433 26.1402 89.5513 26.1402C88.4593 26.1402 87.5586 25.7995 86.8493 25.1182C86.1493 24.4275 85.7993 23.5268 85.7993 22.4162V22.3042C85.7993 21.1842 86.1539 20.2742 86.8633 19.5742C87.5726 18.8742 88.4733 18.5242 89.5653 18.5242C90.6479 18.5242 91.5439 18.8695 92.2533 19.5602C92.9626 20.2508 93.3173 21.1515 93.3173 22.2622V22.3742C93.3173 23.5035 92.9626 24.4135 92.2533 25.1042ZM94.9025 18.6782H96.5965V20.0502C97.0819 19.0702 97.8752 18.5755 98.9765 18.5662V20.1482C98.1925 20.1482 97.5999 20.3068 97.1985 20.6242C96.7972 20.9322 96.5965 21.4548 96.5965 22.1922V26.0002H94.9025V18.6782ZM103.605 26.1402C102.504 26.1402 101.608 25.8042 100.917 25.1322C100.236 24.4602 99.895 23.5548 99.895 22.4162V22.3042C99.895 21.1842 100.236 20.2742 100.917 19.5742C101.608 18.8742 102.48 18.5242 103.535 18.5242C104.524 18.5242 105.346 18.8322 105.999 19.4482C106.662 20.0642 106.993 20.9882 106.993 22.2202V22.7102H101.631C101.659 23.4102 101.841 23.9468 102.177 24.3202C102.522 24.6935 103.012 24.8802 103.647 24.8802C104.636 24.8802 105.196 24.5068 105.327 23.7602H106.965C106.844 24.5348 106.489 25.1275 105.901 25.5382C105.322 25.9395 104.557 26.1402 103.605 26.1402ZM105.313 21.5762C105.22 20.3628 104.627 19.7562 103.535 19.7562C103.031 19.7562 102.611 19.9195 102.275 20.2462C101.948 20.5635 101.743 21.0068 101.659 21.5762H105.313Z" fill="white"/>
<rect x="1" y="1.00018" width="118" height="42" rx="7" stroke="white" stroke-opacity="0.2" stroke-width="2"/>
<defs>
<clipPath id="clip0_612_789">
<rect width="20" height="20" fill="white" transform="translate(12 12.0002)"/>
</clipPath>
</defs>
</svg>
