<svg width="133" height="44" viewBox="0 0 133 44" fill="none" xmlns="http://www.w3.org/2000/svg">
<g clip-path="url(#clip0_612_796)">
<path d="M14.85 12.8002L23.5125 21.4002L25.8875 19.0252L15.3875 12.9627C15.2125 12.8611 15.025 12.8049 14.85 12.8002ZM14.125 13.2002C14.0469 13.3392 14 13.5033 14 13.6877V30.4002C14 30.5345 14.0281 30.6549 14.075 30.7627L22.9375 21.9627L14.125 13.2002ZM26.6125 19.4377L24.075 21.9627L26.6125 24.4752L29.7125 22.7002C30.1531 22.4455 30.2156 22.122 30.2125 21.9502C30.2078 21.6658 30.0281 21.4002 29.725 21.2377C29.4609 21.0955 27.5 19.9533 26.6125 19.4377ZM23.5125 22.5252L14.775 31.1877C14.9203 31.1799 15.0781 31.1486 15.225 31.0627C15.5672 30.8642 22.4875 26.8627 22.4875 26.8627L25.9 24.9002L23.5125 22.5252Z" fill="white"/>
</g>
<path d="M45.642 26.1402C44.074 26.1402 42.8467 25.6735 41.96 24.7402C41.0827 23.7975 40.644 22.5702 40.644 21.0582V20.9462C40.644 19.4528 41.1107 18.2302 42.044 17.2782C42.9773 16.3168 44.1767 15.8362 45.642 15.8362C46.7993 15.8362 47.7747 16.1162 48.568 16.6762C49.3707 17.2362 49.8327 18.0808 49.954 19.2102H48.092C47.8773 17.9408 47.07 17.3062 45.67 17.3062C44.6993 17.3062 43.9387 17.6375 43.388 18.3002C42.8467 18.9628 42.576 19.8495 42.576 20.9602V21.0722C42.576 22.1735 42.8373 23.0508 43.36 23.7042C43.892 24.3575 44.662 24.6842 45.67 24.6842C46.5567 24.6842 47.2193 24.4555 47.658 23.9982C48.0967 23.5315 48.3347 22.9202 48.372 22.1642H45.852V20.7642H50.206V21.6882C50.206 23.0695 49.8 24.1568 48.988 24.9502C48.176 25.7435 47.0607 26.1402 45.642 26.1402ZM55.1942 24.8242C55.8288 24.8242 56.3235 24.6095 56.6782 24.1802C57.0328 23.7415 57.2102 23.1442 57.2102 22.3882V22.2902C57.2102 21.5342 57.0328 20.9415 56.6782 20.5122C56.3235 20.0735 55.8288 19.8542 55.1942 19.8542C54.5595 19.8542 54.0602 20.0688 53.6962 20.4982C53.3415 20.9275 53.1642 21.5202 53.1642 22.2762V22.3882C53.1642 23.1442 53.3415 23.7415 53.6962 24.1802C54.0508 24.6095 54.5502 24.8242 55.1942 24.8242ZM57.8822 25.1042C57.1728 25.7948 56.2722 26.1402 55.1802 26.1402C54.0882 26.1402 53.1875 25.7995 52.4782 25.1182C51.7782 24.4275 51.4282 23.5268 51.4282 22.4162V22.3042C51.4282 21.1842 51.7828 20.2742 52.4922 19.5742C53.2015 18.8742 54.1022 18.5242 55.1942 18.5242C56.2768 18.5242 57.1728 18.8695 57.8822 19.5602C58.5915 20.2508 58.9462 21.1515 58.9462 22.2622V22.3742C58.9462 23.5035 58.5915 24.4135 57.8822 25.1042ZM63.8074 24.8242C64.4421 24.8242 64.9368 24.6095 65.2914 24.1802C65.6461 23.7415 65.8234 23.1442 65.8234 22.3882V22.2902C65.8234 21.5342 65.6461 20.9415 65.2914 20.5122C64.9368 20.0735 64.4421 19.8542 63.8074 19.8542C63.1728 19.8542 62.6734 20.0688 62.3094 20.4982C61.9548 20.9275 61.7774 21.5202 61.7774 22.2762V22.3882C61.7774 23.1442 61.9548 23.7415 62.3094 24.1802C62.6641 24.6095 63.1634 24.8242 63.8074 24.8242ZM66.4954 25.1042C65.7861 25.7948 64.8854 26.1402 63.7934 26.1402C62.7014 26.1402 61.8008 25.7995 61.0914 25.1182C60.3914 24.4275 60.0414 23.5268 60.0414 22.4162V22.3042C60.0414 21.1842 60.3961 20.2742 61.1054 19.5742C61.8148 18.8742 62.7154 18.5242 63.8074 18.5242C64.8901 18.5242 65.7861 18.8695 66.4954 19.5602C67.2048 20.2508 67.5594 21.1515 67.5594 22.2622V22.3742C67.5594 23.5035 67.2048 24.4135 66.4954 25.1042ZM72.2667 28.6882C71.1747 28.6882 70.3347 28.4688 69.7467 28.0302C69.1681 27.5915 68.8321 26.9988 68.7387 26.2522H70.4467C70.6054 27.0175 71.2074 27.4002 72.2527 27.4002C73.6154 27.4002 74.2967 26.7422 74.2967 25.4262V24.3482C74.0821 24.7215 73.7554 25.0435 73.3167 25.3142C72.8874 25.5755 72.4161 25.7062 71.9027 25.7062C70.9694 25.7062 70.1947 25.3888 69.5787 24.7542C68.9627 24.1102 68.6547 23.2655 68.6547 22.2202V22.1222C68.6547 21.0862 68.9627 20.2275 69.5787 19.5462C70.2041 18.8648 70.9927 18.5242 71.9447 18.5242C73.0087 18.5242 73.7927 18.9488 74.2967 19.7982V18.6782H75.9907V25.4542C75.9814 26.5182 75.6501 27.3208 74.9967 27.8622C74.3434 28.4128 73.4334 28.6882 72.2667 28.6882ZM72.3227 24.4042C72.9201 24.4042 73.4054 24.2035 73.7787 23.8022C74.1614 23.4008 74.3527 22.8548 74.3527 22.1642V22.0662C74.3527 21.3662 74.1754 20.8248 73.8207 20.4422C73.4754 20.0502 72.9947 19.8542 72.3787 19.8542C71.7534 19.8542 71.2634 20.0595 70.9087 20.4702C70.5634 20.8715 70.3907 21.4128 70.3907 22.0942V22.2062C70.3907 22.8688 70.5727 23.4008 70.9367 23.8022C71.3007 24.2035 71.7627 24.4042 72.3227 24.4042ZM78.1008 15.2902H79.7948V26.0002H78.1008V15.2902ZM85.1343 26.1402C84.0329 26.1402 83.1369 25.8042 82.4463 25.1322C81.7649 24.4602 81.4243 23.5548 81.4243 22.4162V22.3042C81.4243 21.1842 81.7649 20.2742 82.4463 19.5742C83.1369 18.8742 84.0096 18.5242 85.0643 18.5242C86.0536 18.5242 86.8749 18.8322 87.5283 19.4482C88.1909 20.0642 88.5223 20.9882 88.5223 22.2202V22.7102H83.1603C83.1883 23.4102 83.3703 23.9468 83.7063 24.3202C84.0516 24.6935 84.5416 24.8802 85.1763 24.8802C86.1656 24.8802 86.7256 24.5068 86.8563 23.7602H88.4943C88.3729 24.5348 88.0183 25.1275 87.4303 25.5382C86.8516 25.9395 86.0863 26.1402 85.1343 26.1402ZM86.8423 21.5762C86.7489 20.3628 86.1563 19.7562 85.0643 19.7562C84.5603 19.7562 84.1403 19.9195 83.8043 20.2462C83.4776 20.5635 83.2723 21.0068 83.1883 21.5762H86.8423ZM93.6207 15.9902H96.8407C97.998 15.9902 98.9033 16.2515 99.5567 16.7742C100.219 17.2968 100.551 18.0668 100.551 19.0842V19.1402C100.551 20.1575 100.219 20.9228 99.5567 21.4362C98.894 21.9402 98.0027 22.1922 96.8827 22.1922H95.4827V26.0002H93.6207V15.9902ZM96.8407 20.8482C98.1007 20.8482 98.7307 20.2788 98.7307 19.1402V19.0842C98.7307 17.9828 98.1007 17.4322 96.8407 17.4322H95.4827V20.8482H96.8407ZM102.109 15.2902H103.803V26.0002H102.109V15.2902ZM107.84 26.1402C107.121 26.1402 106.533 25.9628 106.076 25.6082C105.619 25.2442 105.39 24.6982 105.39 23.9702C105.39 23.1675 105.731 22.5795 106.412 22.2062C107.103 21.8328 108.013 21.6462 109.142 21.6462H110.052V21.2682C110.052 20.7548 109.954 20.3815 109.758 20.1482C109.562 19.9148 109.217 19.7982 108.722 19.7982C107.891 19.7982 107.425 20.1808 107.322 20.9462H105.684C105.759 20.1342 106.081 19.5275 106.65 19.1262C107.219 18.7248 107.943 18.5242 108.82 18.5242C110.771 18.5242 111.746 19.4155 111.746 21.1982V26.0002H110.08V25.1042C109.539 25.7948 108.792 26.1402 107.84 26.1402ZM108.246 24.9222C108.787 24.9222 109.221 24.7915 109.548 24.5302C109.884 24.2688 110.052 23.9048 110.052 23.4382V22.7102H109.184C107.775 22.7102 107.07 23.1068 107.07 23.9002C107.07 24.5815 107.462 24.9222 108.246 24.9222ZM115.679 25.2582L112.781 18.6782H114.615L116.561 23.3962L118.353 18.6782H120.005L116.015 28.5062H114.349L115.679 25.2582Z" fill="white"/>
<rect x="1" y="1.00018" width="131" height="42" rx="7" stroke="white" stroke-opacity="0.2" stroke-width="2"/>
<defs>
<clipPath id="clip0_612_796">
<rect width="20" height="20" fill="white" transform="translate(12 12.0002)"/>
</clipPath>
</defs>
</svg>
