<svg width="33" height="20" viewBox="0 0 33 20" fill="none" xmlns="http://www.w3.org/2000/svg">
<path d="M20.8431 2.13837H12.1338V17.8623H20.8431V2.13837Z" fill="#FF5F00"/>
<path d="M12.6866 10.0002C12.6853 8.48583 13.0268 6.99103 13.6855 5.62893C14.3441 4.26683 15.3026 3.07312 16.4883 2.13818C15.0199 0.97864 13.2565 0.257538 11.3995 0.0572958C9.54253 -0.142946 7.66693 0.185744 5.9871 1.00581C4.30727 1.82588 2.89098 3.10424 1.90011 4.69476C0.909245 6.28528 0.383789 8.1238 0.383789 10.0002C0.383789 11.8765 0.909245 13.715 1.90011 15.3056C2.89098 16.8961 4.30727 18.1744 5.9871 18.9945C7.66693 19.8146 9.54253 20.1433 11.3995 19.943C13.2565 19.7428 15.0199 19.0217 16.4883 17.8621C15.3026 16.9272 14.3441 15.7335 13.6855 14.3714C13.0268 13.0093 12.6853 11.5145 12.6866 10.0002Z" fill="#EB001B"/>
<path d="M32.5923 10.0002C32.5924 11.8765 32.067 13.715 31.0761 15.3055C30.0853 16.8961 28.6691 18.1744 26.9893 18.9945C25.3095 19.8146 23.4339 20.1433 21.577 19.943C19.72 19.7428 17.9566 19.0217 16.4883 17.8621C17.673 16.9263 18.6307 15.7324 19.2892 14.3705C19.9477 13.0086 20.2899 11.5143 20.2899 10.0002C20.2899 8.48607 19.9477 6.99174 19.2892 5.62985C18.6307 4.26796 17.673 3.07406 16.4883 2.13818C17.9566 0.978636 19.72 0.257533 21.577 0.0572932C23.4339 -0.142946 25.3095 0.185759 26.9893 1.00584C28.6691 1.82591 30.0853 3.10427 31.0761 4.69479C32.067 6.28532 32.5924 8.12382 32.5923 10.0002Z" fill="#F79E1B"/>
<path d="M31.6427 16.1969V15.875H31.7719V15.8094H31.4429V15.875H31.5721V16.1969H31.6427ZM32.2815 16.1969V15.8088H32.1807L32.0647 16.0757L31.9486 15.8088H31.8477V16.1969H31.9189V15.9041L32.0277 16.1566H32.1016L32.2104 15.9035V16.1969H32.2815Z" fill="#F79E1B"/>
</svg>
