<svg width="267" height="51" viewBox="0 0 267 51" fill="none" xmlns="http://www.w3.org/2000/svg">
<path d="M0 47.5002V25.5002C0 13.3517 9.8537 3.50017 22.0046 3.50017V25.5002C22.0046 37.6486 12.1509 47.5002 0 47.5002Z" fill="#0072EC"/>
<path d="M44 47.5002V25.5002C44 13.3517 34.1464 3.50017 21.9954 3.50017V25.5002C22.0042 37.6486 31.8492 47.5002 44 47.5002Z" fill="#0F8FF9"/>
<path d="M61.112 4.27017H65.578C67.1913 4.27017 68.5113 4.6515 69.538 5.41417C70.5647 6.16217 71.078 7.3135 71.078 8.86817V8.95617C71.078 10.5402 70.5647 11.7135 69.538 12.4762C68.526 13.2242 67.206 13.5982 65.578 13.5982H63.026V20.0002H61.112V4.27017ZM65.71 12.0802C66.8393 12.0802 67.6973 11.8162 68.284 11.2882C68.8707 10.7455 69.164 9.96817 69.164 8.95617V8.86817C69.164 6.8295 68.0127 5.81017 65.71 5.81017H63.026V12.0802H65.71ZM76.5378 20.1982C75.4084 20.1982 74.4844 19.9195 73.7658 19.3622C73.0618 18.7902 72.7098 17.9395 72.7098 16.8102C72.7098 16.1795 72.8638 15.6295 73.1718 15.1602C73.4944 14.6762 73.9344 14.3022 74.4918 14.0382C75.0491 13.7595 75.6578 13.5615 76.3178 13.4442C76.9778 13.3122 77.6964 13.2462 78.4738 13.2462H80.1238V12.4102C80.1238 11.4862 79.9331 10.8262 79.5518 10.4302C79.1704 10.0195 78.5398 9.81417 77.6598 9.81417C76.0758 9.81417 75.1958 10.5035 75.0198 11.8822H73.1938C73.3111 10.6502 73.7878 9.74817 74.6238 9.17617C75.4744 8.5895 76.5158 8.29617 77.7478 8.29617C80.5491 8.29617 81.9498 9.6675 81.9498 12.4102V20.0002H80.1238V18.5482C79.2438 19.6482 78.0484 20.1982 76.5378 20.1982ZM76.7138 18.7462C77.7111 18.7462 78.5251 18.5042 79.1558 18.0202C79.8011 17.5215 80.1238 16.8395 80.1238 15.9742V14.5442H78.5398C75.8704 14.5442 74.5358 15.2995 74.5358 16.8102C74.5358 18.1008 75.2618 18.7462 76.7138 18.7462ZM90.3106 20.1982C88.668 20.1982 87.3186 19.6702 86.2626 18.6142C85.2066 17.5435 84.6786 16.1282 84.6786 14.3682V14.1922C84.6786 12.4615 85.214 11.0462 86.2846 9.94617C87.37 8.84617 88.6973 8.29617 90.2666 8.29617C91.5866 8.29617 92.7086 8.62617 93.6326 9.28617C94.5566 9.9315 95.0993 10.9435 95.2606 12.3222H93.4566C93.1926 10.6502 92.1293 9.81417 90.2666 9.81417C89.196 9.81417 88.3086 10.2175 87.6046 11.0242C86.9153 11.8162 86.5706 12.8722 86.5706 14.1922V14.3682C86.5706 15.7468 86.908 16.8102 87.5826 17.5582C88.272 18.3062 89.1886 18.6802 90.3326 18.6802C91.198 18.6802 91.9386 18.4382 92.5546 17.9542C93.1853 17.4555 93.5446 16.7588 93.6326 15.8642H95.3266C95.2093 17.1255 94.6813 18.1668 93.7426 18.9882C92.8186 19.7948 91.6746 20.1982 90.3106 20.1982ZM102.858 20.1982C101.215 20.1982 99.8655 19.6702 98.8095 18.6142C97.7535 17.5435 97.2255 16.1282 97.2255 14.3682V14.1922C97.2255 12.4615 97.7608 11.0462 98.8315 9.94617C99.9168 8.84617 101.244 8.29617 102.814 8.29617C104.134 8.29617 105.256 8.62617 106.18 9.28617C107.104 9.9315 107.646 10.9435 107.808 12.3222H106.004C105.74 10.6502 104.676 9.81417 102.814 9.81417C101.743 9.81417 100.856 10.2175 100.152 11.0242C99.4622 11.8162 99.1175 12.8722 99.1175 14.1922V14.3682C99.1175 15.7468 99.4548 16.8102 100.13 17.5582C100.819 18.3062 101.736 18.6802 102.88 18.6802C103.745 18.6802 104.486 18.4382 105.102 17.9542C105.732 17.4555 106.092 16.7588 106.18 15.8642H107.874C107.756 17.1255 107.228 18.1668 106.29 18.9882C105.366 19.7948 104.222 20.1982 102.858 20.1982ZM117.208 20.0002V14.6322C116.416 15.4828 115.316 15.9082 113.908 15.9082C112.779 15.9082 111.855 15.5488 111.136 14.8302C110.418 14.0968 110.058 12.9822 110.058 11.4862V8.49417H111.884V11.3982C111.884 13.3488 112.72 14.3242 114.392 14.3242C115.639 14.3242 116.578 13.8988 117.208 13.0482V8.49417H119.034V20.0002H117.208ZM122.723 20.0002V8.49417H124.549V17.3602L130.423 8.49417H132.249V20.0002H130.423V11.1342L124.549 20.0002H122.723ZM143.795 10.0342H140.077V20.0002H138.251V10.0342H134.533V8.49417H143.795V10.0342ZM156.213 8.49417H158.039V20.0002H156.213V8.49417ZM146.313 8.49417H148.139V12.5202H150.185C151.49 12.5202 152.546 12.8135 153.353 13.4002C154.174 13.9868 154.585 14.9108 154.585 16.1722V16.2382C154.585 17.4848 154.174 18.4235 153.353 19.0542C152.532 19.6848 151.476 20.0002 150.185 20.0002H146.313V8.49417ZM150.295 18.5482C151.16 18.5482 151.784 18.3648 152.165 17.9982C152.561 17.6168 152.759 17.0302 152.759 16.2382V16.1722C152.759 15.4388 152.568 14.8888 152.187 14.5222C151.806 14.1408 151.175 13.9502 150.295 13.9502H148.139V18.5482H150.295ZM161.739 8.49417H165.765C168.463 8.49417 169.813 9.4695 169.813 11.4202V11.4862C169.813 12.0435 169.659 12.5568 169.351 13.0262C169.043 13.4808 168.581 13.7888 167.965 13.9502C169.563 14.3022 170.363 15.1675 170.363 16.5462V16.6122C170.363 17.7268 169.996 18.5702 169.263 19.1422C168.544 19.7142 167.539 20.0002 166.249 20.0002H161.739V8.49417ZM163.565 9.94617V13.3562H165.765C166.527 13.3562 167.07 13.2168 167.393 12.9382C167.73 12.6595 167.899 12.2048 167.899 11.5742V11.5082C167.899 10.9215 167.723 10.5182 167.371 10.2982C167.033 10.0635 166.491 9.94617 165.743 9.94617H163.565ZM163.565 14.8082V18.5482H166.073C166.879 18.5482 167.473 18.4088 167.855 18.1302C168.251 17.8368 168.449 17.3675 168.449 16.7222V16.6562C168.449 16.0108 168.251 15.5415 167.855 15.2482C167.473 14.9548 166.879 14.8082 166.073 14.8082H163.565ZM176.397 20.1982C175.268 20.1982 174.344 19.9195 173.625 19.3622C172.921 18.7902 172.569 17.9395 172.569 16.8102C172.569 16.1795 172.723 15.6295 173.031 15.1602C173.354 14.6762 173.794 14.3022 174.351 14.0382C174.908 13.7595 175.517 13.5615 176.177 13.4442C176.837 13.3122 177.556 13.2462 178.333 13.2462H179.983V12.4102C179.983 11.4862 179.792 10.8262 179.411 10.4302C179.03 10.0195 178.399 9.81417 177.519 9.81417C175.935 9.81417 175.055 10.5035 174.879 11.8822H173.053C173.17 10.6502 173.647 9.74817 174.483 9.17617C175.334 8.5895 176.375 8.29617 177.607 8.29617C180.408 8.29617 181.809 9.6675 181.809 12.4102V20.0002H179.983V18.5482C179.103 19.6482 177.908 20.1982 176.397 20.1982ZM176.573 18.7462C177.57 18.7462 178.384 18.5042 179.015 18.0202C179.66 17.5215 179.983 16.8395 179.983 15.9742V14.5442H178.399C175.73 14.5442 174.395 15.2995 174.395 16.8102C174.395 18.1008 175.121 18.7462 176.573 18.7462ZM189.994 6.38217C189.202 6.38217 188.527 6.11083 187.97 5.56817C187.413 5.01083 187.119 4.31417 187.09 3.47817H188.674C188.762 4.5635 189.202 5.10617 189.994 5.10617C190.859 5.10617 191.343 4.5635 191.446 3.47817H192.986C192.927 4.31417 192.612 5.01083 192.04 5.56817C191.483 6.11083 190.801 6.38217 189.994 6.38217ZM185.264 20.0002V8.49417H187.09V17.3602L192.964 8.49417H194.79V20.0002H192.964V11.1342L187.09 20.0002H185.264ZM206.336 10.0342H202.618V20.0002H200.792V10.0342H197.074V8.49417H206.336V10.0342ZM213.264 20.1982C211.622 20.1982 210.28 19.6628 209.238 18.5922C208.212 17.5215 207.698 16.1135 207.698 14.3682V14.1922C207.698 12.4615 208.197 11.0462 209.194 9.94617C210.206 8.84617 211.504 8.29617 213.088 8.29617C214.555 8.29617 215.78 8.77283 216.762 9.72617C217.76 10.6648 218.258 12.0948 218.258 14.0162V14.6102H209.59C209.678 17.3235 210.91 18.6802 213.286 18.6802C215.09 18.6802 216.11 18.0128 216.344 16.6782H218.17C217.965 17.8222 217.43 18.6948 216.564 19.2962C215.699 19.8975 214.599 20.1982 213.264 20.1982ZM216.388 13.1362C216.227 10.9215 215.127 9.81417 213.088 9.81417C212.164 9.81417 211.402 10.1075 210.8 10.6942C210.199 11.2808 209.818 12.0948 209.656 13.1362H216.388ZM68.328 40.8742H62.674V46.0002H60.848V34.4942H62.674V39.3342H68.328V34.4942H70.154V46.0002H68.328V40.8742ZM76.86 46.1982C75.7307 46.1982 74.8067 45.9195 74.088 45.3622C73.384 44.7902 73.032 43.9395 73.032 42.8102C73.032 42.1795 73.186 41.6295 73.494 41.1602C73.8167 40.6762 74.2567 40.3022 74.814 40.0382C75.3714 39.7595 75.98 39.5615 76.64 39.4442C77.3 39.3122 78.0187 39.2462 78.796 39.2462H80.446V38.4102C80.446 37.4862 80.2554 36.8262 79.874 36.4302C79.4927 36.0195 78.862 35.8142 77.982 35.8142C76.398 35.8142 75.518 36.5035 75.342 37.8822H73.516C73.6334 36.6502 74.11 35.7482 74.946 35.1762C75.7967 34.5895 76.838 34.2962 78.07 34.2962C80.8714 34.2962 82.272 35.6675 82.272 38.4102V46.0002H80.446V44.5482C79.566 45.6482 78.3707 46.1982 76.86 46.1982ZM77.036 44.7462C78.0334 44.7462 78.8474 44.5042 79.478 44.0202C80.1234 43.5215 80.446 42.8395 80.446 41.9742V40.5442H78.862C76.1927 40.5442 74.858 41.2995 74.858 42.8102C74.858 44.1008 75.584 44.7462 77.036 44.7462ZM104.356 46.0002H101.628L100.539 42.5682H94.2909L93.2129 46.0002H90.4849L95.4789 30.1602H99.3619L104.356 46.0002ZM97.3929 32.7232L95.0719 40.0932H99.7469L97.3929 32.7232ZM114.166 30.1602H116.839V46.0002H114.496V45.1202C113.608 45.9268 112.479 46.3302 111.108 46.3302C110.037 46.3302 109.087 46.0588 108.259 45.5162C107.437 44.9662 106.803 44.2182 106.356 43.2722C105.908 42.3188 105.685 41.2482 105.685 40.0602C105.685 38.8575 105.912 37.7832 106.367 36.8372C106.821 35.8838 107.467 35.1395 108.303 34.6042C109.139 34.0615 110.107 33.7902 111.207 33.7902C112.351 33.7902 113.337 34.0945 114.166 34.7032V30.1602ZM111.515 43.9542C112.534 43.9542 113.286 43.6095 113.77 42.9202C114.254 42.2235 114.496 41.2702 114.496 40.0602C114.496 38.8502 114.257 37.9005 113.781 37.2112C113.304 36.5145 112.578 36.1662 111.603 36.1662C110.913 36.1662 110.334 36.3385 109.865 36.6832C109.403 37.0205 109.058 37.4825 108.831 38.0692C108.603 38.6558 108.49 39.3195 108.49 40.0602C108.49 40.8082 108.6 41.4755 108.82 42.0622C109.047 42.6488 109.384 43.1108 109.832 43.4482C110.286 43.7855 110.847 43.9542 111.515 43.9542ZM122.101 40.7972C122.203 41.7798 122.515 42.5352 123.036 43.0632C123.564 43.5838 124.275 43.8442 125.17 43.8442C125.815 43.8442 126.376 43.7012 126.853 43.4152C127.329 43.1218 127.696 42.7002 127.953 42.1502L130.571 42.9422C130.27 43.6462 129.852 44.2548 129.317 44.7682C128.789 45.2742 128.18 45.6628 127.491 45.9342C126.809 46.1982 126.086 46.3302 125.324 46.3302C124.136 46.3302 123.083 46.0698 122.167 45.5492C121.25 45.0285 120.535 44.3025 120.022 43.3712C119.516 42.4398 119.263 41.3802 119.263 40.1922C119.263 38.9088 119.508 37.7868 120 36.8262C120.498 35.8582 121.195 35.1102 122.09 34.5822C122.984 34.0542 124.011 33.7902 125.17 33.7902C126.314 33.7902 127.304 34.0432 128.14 34.5492C128.976 35.0552 129.617 35.7775 130.065 36.7162C130.512 37.6475 130.736 38.7438 130.736 40.0052C130.736 40.2545 130.725 40.5185 130.703 40.7972H122.101ZM125.28 36.1112C123.52 36.1112 122.482 37.0058 122.167 38.7952H128.019C127.901 37.8712 127.619 37.1928 127.172 36.7602C126.732 36.3275 126.101 36.1112 125.28 36.1112ZM137.744 46.3302C136.278 46.3302 135.086 46.0002 134.169 45.3402C133.253 44.6802 132.695 43.7525 132.497 42.5572L135.203 42.1392C135.335 42.7332 135.64 43.1988 136.116 43.5362C136.6 43.8662 137.205 44.0312 137.931 44.0312C138.562 44.0312 139.053 43.9065 139.405 43.6572C139.757 43.4005 139.933 43.0522 139.933 42.6122C139.933 42.3262 139.864 42.1062 139.724 41.9522C139.592 41.7982 139.325 41.6478 138.921 41.5012C138.518 41.3472 137.847 41.1455 136.908 40.8962C135.904 40.6322 135.108 40.3498 134.521 40.0492C133.942 39.7412 133.524 39.3818 133.267 38.9712C133.011 38.5532 132.882 38.0435 132.882 37.4422C132.882 36.7088 133.073 36.0672 133.454 35.5172C133.843 34.9672 134.389 34.5418 135.093 34.2412C135.805 33.9405 136.626 33.7902 137.557 33.7902C138.474 33.7902 139.292 33.9332 140.01 34.2192C140.729 34.5052 141.308 34.9158 141.748 35.4512C142.196 35.9792 142.467 36.5952 142.562 37.2992L139.856 37.7832C139.783 37.2772 139.548 36.8775 139.152 36.5842C138.764 36.2908 138.247 36.1258 137.601 36.0892C136.978 36.0598 136.476 36.1588 136.094 36.3862C135.713 36.6062 135.522 36.9142 135.522 37.3102C135.522 37.5522 135.599 37.7502 135.753 37.9042C135.915 38.0582 136.219 38.2158 136.666 38.3772C137.114 38.5312 137.814 38.7292 138.767 38.9712C139.728 39.2205 140.487 39.4992 141.044 39.8072C141.609 40.1152 142.016 40.4855 142.265 40.9182C142.522 41.3435 142.65 41.8678 142.65 42.4912C142.65 43.2832 142.452 43.9688 142.056 44.5482C141.668 45.1202 141.103 45.5602 140.362 45.8682C139.629 46.1762 138.756 46.3302 137.744 46.3302ZM155.62 46.0002H152.738L148.723 40.7312L147.557 41.9082V46.0002H145.038L145.06 30.1602H147.557V38.6522L152.155 34.1202H155.268L150.351 39.0812L155.62 46.0002ZM158.69 46.2092C158.397 46.2092 158.129 46.1395 157.887 46.0002C157.645 45.8608 157.455 45.6702 157.315 45.4282C157.176 45.1862 157.106 44.9185 157.106 44.6252C157.106 44.3318 157.176 44.0642 157.315 43.8222C157.455 43.5802 157.645 43.3895 157.887 43.2502C158.129 43.1108 158.397 43.0412 158.69 43.0412C158.991 43.0412 159.262 43.1108 159.504 43.2502C159.746 43.3895 159.937 43.5802 160.076 43.8222C160.216 44.0642 160.285 44.3318 160.285 44.6252C160.285 44.9185 160.216 45.1862 160.076 45.4282C159.937 45.6702 159.746 45.8608 159.504 46.0002C159.262 46.1395 158.991 46.2092 158.69 46.2092Z" fill="white"/>
</svg>
