<svg width="104" height="10" viewBox="0 0 104 10" fill="none" xmlns="http://www.w3.org/2000/svg">
<path d="M4.18019 2.92668H0V0.478088H11.3643V2.90755H7.20426V9.60291H4.17514L4.18019 2.92668Z" fill="white"/>
<path d="M22.9953 0.478088V9.56465H20.0671V4.30401L15.0186 9.59813H12.4388V0.478088H15.3669V5.79134L20.4104 0.478088H22.9953Z" fill="white"/>
<path d="M28.0394 9.59813H25.1113V0.478088H28.0394V3.82577H32.7447V0.478088H35.6728V9.56465H32.7447V6.21697H28.0394V9.59813Z" fill="white"/>
<path d="M37.7884 9.59813V0.478088H40.7165V2.92668H43.7457C44.469 2.89116 45.1934 2.97531 45.8862 3.17536C46.5481 3.39079 47.1184 3.80365 47.5116 4.35203C47.9048 4.90041 48.0997 5.55476 48.0672 6.21697C48.0926 6.93758 47.8557 7.64455 47.396 8.21926C46.9364 8.79397 46.2821 9.20146 45.5429 9.37335C44.9438 9.52438 44.3252 9.59521 43.7053 9.58378L37.7884 9.59813ZM40.7165 7.39822H43.2408C43.6302 7.43127 44.0225 7.38563 44.3919 7.26431C44.6076 7.1758 44.7913 7.02953 44.9205 6.84346C45.0496 6.6574 45.1186 6.43965 45.1189 6.21697C45.1238 5.99497 45.0512 5.77764 44.9125 5.59866C44.7737 5.41968 44.5766 5.28905 44.3515 5.22701C43.9847 5.12518 43.602 5.08472 43.2206 5.10745H40.6963L40.7165 7.39822Z" fill="white"/>
<path d="M52.3431 9.59813H49.415V0.478088H52.3431V3.92142H53.1458L56.6798 0.497218H60.3552L55.6701 4.85398L60.5369 9.59813H56.6394L53.1458 6.1548H52.3431V9.59813Z" fill="white"/>
<path d="M72.9155 5.06502C72.9155 7.78143 70.5528 9.88568 66.6352 9.88568C62.7175 9.88568 60.3346 7.78143 60.3346 5.06502C60.3346 2.34862 62.6973 0.249146 66.6402 0.249146C70.5831 0.249146 72.9155 2.3534 72.9155 5.06502ZM69.846 5.06502C69.846 3.5777 68.5738 2.48731 66.6352 2.48731C64.6965 2.48731 63.4243 3.5777 63.4243 5.06502C63.4243 6.55235 64.6763 7.6523 66.6402 7.6523C68.6041 7.6523 69.846 6.55713 69.846 5.06502Z" fill="white"/>
<path d="M88.4651 5.04562C88.4651 7.64724 86.264 9.00544 82.5684 9.08196V10.0002H79.6403V9.08674C75.965 9.01023 73.7638 7.65202 73.7638 5.0504C73.7638 2.44877 75.965 0.980575 79.6403 0.904057V0.000183105H82.5684V0.918404C86.264 0.956663 88.4651 2.44877 88.4651 5.04562ZM79.6403 2.86962C77.6209 2.94614 76.7323 3.8261 76.7323 5.04562C76.7323 6.26513 77.6209 7.05422 79.6403 7.13074V2.86962ZM85.4764 5.04562C85.4764 3.8261 84.6081 2.94614 82.5684 2.86962V7.13074C84.6081 7.05422 85.4764 6.26991 85.4764 5.04562Z" fill="white"/>
<path d="M104 5.04562C104 7.64724 101.799 9.00544 98.1033 9.08196V10.0002H95.1751V9.08674C91.4998 9.01023 89.2986 7.65202 89.2986 5.0504C89.2986 2.44877 91.4998 0.980575 95.1751 0.904057V0.000183105H98.1033V0.918404C101.814 0.956663 104 2.44877 104 5.04562ZM95.1903 2.86962C93.1709 2.94614 92.2823 3.8261 92.2823 5.04562C92.2823 6.26513 93.1709 7.05422 95.1903 7.13074V2.86962ZM101.026 5.04562C101.026 3.8261 100.158 2.94614 98.1184 2.86962V7.13074C100.158 7.05422 101.026 6.26991 101.026 5.04562Z" fill="white"/>
</svg>
